<svg width="20" height="20" viewBox="0 0 20 20" fill="none" xmlns="http://www.w3.org/2000/svg">
<path fill-rule="evenodd" clip-rule="evenodd" d="M9.46447 7.32233L8.39341 6.25126L10.5355 4.10913C12.0144 2.63029 14.412 2.63029 15.8909 4.10913C17.3697 5.58796 17.3697 7.98562 15.8909 9.46446L13.7487 11.6066L12.6777 10.5355L14.8198 8.39339C15.7071 7.50609 15.7071 6.06749 14.8198 5.18019C13.9325 4.29289 12.4939 4.29289 11.6066 5.18019L9.46447 7.32233Z" fill="white"/>
<path fill-rule="evenodd" clip-rule="evenodd" d="M7.85787 13.2128L6.7868 12.1417L12.1421 6.78637L13.2132 7.85743L7.85787 13.2128Z" fill="white"/>
<path fill-rule="evenodd" clip-rule="evenodd" d="M10.5355 12.6773L11.6066 13.7484L9.46446 15.8905C7.98563 17.3693 5.58796 17.3693 4.10913 15.8905C2.63029 14.4117 2.63029 12.014 4.10913 10.5352L6.25126 8.39303L7.32233 9.4641L5.18019 11.6062C4.29289 12.4935 4.29289 13.9321 5.18019 14.8194C6.06749 15.7067 7.50609 15.7067 8.39339 14.8194L10.5355 12.6773Z" fill="white"/>
</svg>
