<svg width="25" height="19" viewBox="0 0 25 19" fill="none" xmlns="http://www.w3.org/2000/svg">
<path d="M20.5589 1.53947C19.011 0.826916 17.3511 0.301938 15.6156 0.0012613C15.584 -0.00454167 15.5524 0.00996026 15.5362 0.0389648C15.3227 0.419885 15.0862 0.916826 14.9206 1.30742C13.054 1.02705 11.1969 1.02705 9.36854 1.30742C9.20292 0.908144 8.95787 0.419885 8.74344 0.0389648C8.72716 0.010928 8.69559 -0.00357393 8.66398 0.0012613C6.92943 0.300977 5.26956 0.825955 3.72071 1.53947C3.7073 1.54527 3.69581 1.55495 3.68818 1.56751C0.539742 6.28654 -0.322747 10.8896 0.100361 15.4356C0.102275 15.4578 0.11472 15.4791 0.13195 15.4926C2.2092 17.0231 4.22137 17.9522 6.19618 18.568C6.22778 18.5777 6.26127 18.5661 6.28138 18.54C6.74852 17.9 7.16494 17.2252 7.52197 16.5155C7.54304 16.4739 7.52293 16.4246 7.47986 16.4082C6.81936 16.1568 6.19043 15.8503 5.58544 15.5023C5.53759 15.4742 5.53376 15.4056 5.57778 15.3727C5.70509 15.277 5.83244 15.1774 5.954 15.0769C5.976 15.0585 6.00664 15.0546 6.0325 15.0662C10.007 16.8868 14.3099 16.8868 18.2375 15.0662C18.2634 15.0537 18.294 15.0575 18.317 15.0759C18.4386 15.1764 18.5659 15.277 18.6942 15.3727C18.7382 15.4056 18.7353 15.4742 18.6874 15.5023C18.0825 15.8571 17.4535 16.1568 16.7921 16.4072C16.749 16.4237 16.7298 16.4739 16.7509 16.5155C17.1156 17.2242 17.532 17.899 17.9906 18.539C18.0097 18.5661 18.0441 18.5777 18.0758 18.568C20.0601 17.9522 22.0723 17.0231 24.1495 15.4926C24.1677 15.4791 24.1792 15.4588 24.1812 15.4365C24.6875 10.1809 23.333 5.61558 20.5905 1.56847C20.5838 1.55495 20.5723 1.54527 20.5589 1.53947ZM8.1155 12.6675C6.9189 12.6675 5.93293 11.5654 5.93293 10.2118C5.93293 8.85828 6.89978 7.75613 8.1155 7.75613C9.34076 7.75613 10.3172 8.86796 10.298 10.2118C10.298 11.5654 9.33119 12.6675 8.1155 12.6675ZM16.1852 12.6675C14.9886 12.6675 14.0026 11.5654 14.0026 10.2118C14.0026 8.85828 14.9694 7.75613 16.1852 7.75613C17.4105 7.75613 18.3869 8.86796 18.3677 10.2118C18.3677 11.5654 17.4105 12.6675 16.1852 12.6675Z" fill="url(#paint0_linear_0_448)"/>
<defs>
<linearGradient id="paint0_linear_0_448" x1="24.2857" y1="-7.14286" x2="38.1722" y2="41.3833" gradientUnits="userSpaceOnUse">
<stop stop-color="#11A97D"/>
<stop offset="1" stop-color="#C4C4C4" stop-opacity="0"/>
</linearGradient>
</defs>
</svg>
