<svg width="114" height="24" fill="none" xmlns="http://www.w3.org/2000/svg"><path d="M19.576.053a3.985 3.985 0 0 0-3.596 1.269c-.849.947-1.113 2.182-.909 3.418.185 1.116.43 2.248.485 3.322a12.165 12.165 0 0 1-.727 4.758c-.504 1.377-1.222 2.445-2.76 2.681-.114.018-.529.031-.647.038a5.06 5.06 0 0 1-.606-.036c-1.538-.237-2.262-1.305-2.764-2.69a12.166 12.166 0 0 1-.727-4.759c.055-1.07.3-2.203.484-3.321.204-1.237-.06-2.471-.908-3.42A3.974 3.974 0 0 0 3.298.054C1.325.373.012 2.119 0 3.95a3.779 3.779 0 0 0 .555 2c.614 1.01 1.621 1.745 2.5 2.51.582.51 1.589 1.96 2.082 3.532.299.952.542 1.916.783 2.89.338 1.357.804 4.354 1.11 5.714.611 2.724 2.483 3.341 4.358 3.404h.066c1.875-.063 3.777-.681 4.389-3.405.305-1.36.769-4.359 1.11-5.714.242-.969.484-1.938.783-2.89.493-1.572 1.5-3.027 2.081-3.533.88-.766 1.886-1.5 2.5-2.51a3.78 3.78 0 0 0 .556-2c-.01-1.834-1.32-3.58-3.297-3.895ZM44.322 3.32l-6.285 16.683h-3.179L28.55 3.32h2.938l4.96 13.874L41.433 3.32h2.89ZM58.778 13.066c0 .496-.032.944-.097 1.344H48.544c.08 1.056.473 1.904 1.18 2.544.706.64 1.573.96 2.6.96 1.477 0 2.52-.616 3.13-1.848h2.963c-.402 1.216-1.132 2.216-2.192 3-1.043.769-2.343 1.153-3.9 1.153-1.269 0-2.409-.28-3.42-.84a6.288 6.288 0 0 1-2.36-2.4c-.562-1.04-.843-2.24-.843-3.601 0-1.36.273-2.553.82-3.577.561-1.04 1.34-1.84 2.335-2.4 1.011-.56 2.167-.84 3.467-.84 1.253 0 2.368.272 3.348.816a5.755 5.755 0 0 1 2.287 2.304c.546.977.819 2.105.819 3.385Zm-2.866-.864c-.016-1.008-.377-1.817-1.083-2.425-.707-.608-1.582-.912-2.625-.912-.947 0-1.758.304-2.432.912-.674.592-1.076 1.4-1.204 2.425h7.344ZM68.173 6.56c1.044 0 1.975.217 2.794.649a4.6 4.6 0 0 1 1.95 1.92c.466.848.698 1.873.698 3.073v7.8h-2.72V12.61c0-1.184-.297-2.088-.891-2.713-.595-.64-1.405-.96-2.433-.96-1.027 0-1.846.32-2.456.96-.594.624-.89 1.529-.89 2.713v7.393h-2.746V6.777h2.745v1.512a4.563 4.563 0 0 1 1.71-1.272 5.604 5.604 0 0 1 2.24-.456ZM82.872 20.219c-1.252 0-2.384-.28-3.395-.84a6.238 6.238 0 0 1-2.384-2.4c-.578-1.04-.867-2.24-.867-3.601 0-1.344.297-2.537.891-3.577a6.145 6.145 0 0 1 2.432-2.4c1.027-.56 2.175-.84 3.444-.84 1.268 0 2.416.28 3.443.84a6.145 6.145 0 0 1 2.432 2.4c.594 1.04.89 2.233.89 3.577 0 1.344-.304 2.536-.914 3.576a6.39 6.39 0 0 1-2.504 2.425c-1.044.56-2.2.84-3.468.84Zm0-2.377c.706 0 1.365-.168 1.975-.504.626-.336 1.131-.84 1.517-1.512.385-.672.578-1.488.578-2.448s-.185-1.768-.554-2.425c-.37-.672-.86-1.176-1.47-1.512a4.027 4.027 0 0 0-1.974-.504c-.706 0-1.364.168-1.974.504-.594.336-1.068.84-1.42 1.512-.354.657-.53 1.465-.53 2.425 0 1.424.36 2.528 1.083 3.312.738.768 1.661 1.152 2.77 1.152ZM108.534 6.56c1.043 0 1.974.217 2.793.649a4.602 4.602 0 0 1 1.951 1.92c.481.848.722 1.873.722 3.073v7.8h-2.721V12.61c0-1.184-.297-2.088-.891-2.713-.594-.64-1.405-.96-2.432-.96s-1.846.32-2.456.96c-.594.624-.891 1.529-.891 2.713v7.393h-2.721V12.61c0-1.184-.297-2.088-.891-2.713-.594-.64-1.405-.96-2.432-.96-1.028 0-1.846.32-2.456.96-.594.624-.891 1.529-.891 2.713v7.393h-2.745V6.777h2.745v1.512a4.563 4.563 0 0 1 1.71-1.272 5.434 5.434 0 0 1 2.215-.456c1.059 0 2.006.224 2.841.672a4.604 4.604 0 0 1 1.927 1.944c.401-.8 1.027-1.432 1.878-1.896a5.496 5.496 0 0 1 2.745-.72Z" fill="#fff"/></svg>