<svg width="21" height="23" viewBox="0 0 21 23" fill="none" xmlns="http://www.w3.org/2000/svg">
<path d="M17.4906 0.899439C16.9027 0.804177 16.3002 0.858401 15.7386 1.05712C15.1771 1.25583 14.6746 1.59265 14.2774 2.03654C13.5194 2.88622 13.2835 3.9924 13.4656 5.10088C13.6304 6.10057 13.8492 7.11514 13.8984 8.07819C13.9672 9.52867 13.7465 10.9783 13.2491 12.3426C12.7991 13.577 12.1578 14.5344 10.7837 14.7462C10.6818 14.7622 10.3107 14.7737 10.2054 14.7794C10.1 14.7851 9.76682 14.7634 9.66376 14.7474C8.28961 14.5355 7.64262 13.5782 7.19374 12.3357C6.69633 10.9715 6.47561 9.5218 6.54445 8.07132C6.59369 7.11171 6.81241 6.09599 6.97731 5.09401C7.15938 3.98553 6.92349 2.87935 6.16542 2.02967C5.76697 1.58611 5.26321 1.25005 4.70063 1.05252C4.13805 0.854986 3.53478 0.80234 2.94649 0.899439C1.18415 1.18686 0.0104088 2.7511 0.00010271 4.39205C-0.00481538 5.02431 0.166912 5.64538 0.495939 6.18531C1.04445 7.08995 1.94451 7.74954 2.73006 8.43432C3.24995 8.89237 4.14887 10.1921 4.58974 11.6006C4.85655 12.4537 5.07412 13.3183 5.2894 14.1908C5.59172 15.4069 6.00739 18.0934 6.28108 19.3129C6.8273 21.7543 8.49917 22.3074 10.1745 22.3635L10.234 22.3635C11.9093 22.3074 13.6087 21.7532 14.1549 19.3118C14.4274 18.0923 14.842 15.4047 15.1466 14.1897C15.363 13.3217 15.5794 12.4525 15.8463 11.5994C16.2871 10.1909 17.186 8.88664 17.7059 8.43317C18.4915 7.7461 19.3904 7.0888 19.94 6.18416C20.2691 5.64424 20.4408 5.02317 20.4359 4.39091C20.4267 2.74652 19.2576 1.18114 17.4906 0.899439Z" fill="white"/>
</svg>
