<svg width="22" height="18" viewBox="0 0 22 18" fill="none" xmlns="http://www.w3.org/2000/svg">
<path d="M6.91859 18C15.2205 18 19.7614 11.0742 19.7614 5.06839C19.7614 4.87172 19.7614 4.6758 19.7482 4.48086C20.6316 3.83745 21.394 3.04095 22 2.12827C21.1762 2.49575 20.3023 2.73697 19.4074 2.8433C20.3497 2.27521 21.055 1.38198 21.3918 0.329488C20.5057 0.858932 19.5365 1.23208 18.5257 1.43268C16.8163 -0.397604 13.957 -0.485968 12.1392 1.23528C10.9669 2.34536 10.4697 3.99941 10.8334 5.57789C7.20459 5.39452 3.82315 3.6686 1.53122 0.829149C0.333181 2.90582 0.945033 5.56263 2.92872 6.89621C2.21029 6.8748 1.50775 6.67961 0.88001 6.32738C0.88001 6.34609 0.88001 6.36554 0.88001 6.38498C0.880499 8.54854 2.39509 10.4118 4.50125 10.8403C3.83684 11.0227 3.13943 11.0495 2.46305 10.9184C3.05437 12.7698 4.74887 14.0382 6.68001 14.0746C5.08157 15.3395 3.10717 16.026 1.07435 16.024C0.715252 16.0233 0.356648 16.0014 0 15.9583C2.06411 17.2921 4.46605 17.9995 6.91859 17.9963" fill="url(#paint0_linear_0_454)"/>
<defs>
<linearGradient id="paint0_linear_0_454" x1="22" y1="-6.92308" x2="36.2443" y2="39.6003" gradientUnits="userSpaceOnUse">
<stop stop-color="#11A97D" stop-opacity="0.85"/>
<stop offset="1" stop-color="#C4C4C4" stop-opacity="0"/>
</linearGradient>
</defs>
</svg>
